<?xml version="1.0" encoding="utf-8" standalone="no"?>
<!DOCTYPE svg PUBLIC "-//W3C//DTD SVG 1.1//EN"
  "http://www.w3.org/Graphics/SVG/1.1/DTD/svg11.dtd">
<svg xmlns:xlink="http://www.w3.org/1999/xlink" width="420pt" height="280.8pt" viewBox="0 0 420 280.8" xmlns="http://www.w3.org/2000/svg" version="1.1">
 <metadata>
  <rdf:RDF xmlns:dc="http://purl.org/dc/elements/1.1/" xmlns:cc="http://creativecommons.org/ns#" xmlns:rdf="http://www.w3.org/1999/02/22-rdf-syntax-ns#">
   <cc:Work>
    <dc:type rdf:resource="http://purl.org/dc/dcmitype/StillImage"/>
    <dc:date>2026-09-23T16:58:40.082845</dc:date>
    <dc:format>image/svg+xml</dc:format>
    <dc:creator>
     <cc:Agent>
      <dc:title>Matplotlib v3.11.1, https://matplotlib.org/</dc:title>
     </cc:Agent>
    </dc:creator>
   </cc:Work>
  </rdf:RDF>
 </metadata>
 <defs>
  <style type="text/css">*{stroke-linejoin: round; stroke-linecap: butt}</style>
 </defs>
 <g id="figure_1">
  <g id="patch_1">
   <path d="M 0 280.8 
L 420 280.8 
L 420 0 
L 0 0 
z
" style="fill: #ffffff"/>
  </g>
  <g id="axes_1">
   <g id="patch_2">
    <path d="M 28.7616 135.699408 
L 133.4424 135.699408 
Q 136.5672 135.699408 136.5672 133.610256 
L 136.5672 42.732144 
Q 136.5672 40.642992 133.4424 40.642992 
L 28.7616 40.642992 
Q 25.6368 40.642992 25.6368 42.732144 
L 25.6368 133.610256 
Q 25.6368 135.699408 28.7616 135.699408 
z
" clip-path="url(#p6a69514ee4)" style="fill: #cbe3f3; stroke: #454545; stroke-width: 0.9; stroke-linejoin: miter"/>
   </g>
   <g id="patch_3">
    <path d="M 81.102 173.958534 
Q 81.102 156.066157 81.102 139.291814 
" clip-path="url(#p6a69514ee4)" style="fill: none; stroke-dasharray: 3.7,1.6; stroke-dashoffset: 0; stroke: #454545; stroke-linecap: round"/>
    <path d="M 78.902 143.691814 
L 81.102 139.291814 
L 83.302 143.691814 
z
" clip-path="url(#p6a69514ee4)" style="fill: #454545; stroke-dasharray: 3.7,1.6; stroke-dashoffset: 0; stroke: #454545; stroke-linecap: round"/>
   </g>
   <g id="patch_4">
    <path d="M 157.6596 135.699408 
L 262.3404 135.699408 
Q 265.4652 135.699408 265.4652 133.610256 
L 265.4652 42.732144 
Q 265.4652 40.642992 262.3404 40.642992 
L 157.6596 40.642992 
Q 154.5348 40.642992 154.5348 42.732144 
L 154.5348 133.610256 
Q 154.5348 135.699408 157.6596 135.699408 
z
" clip-path="url(#p6a69514ee4)" style="fill: #cbe3f3; stroke: #454545; stroke-width: 0.9; stroke-linejoin: miter"/>
   </g>
   <g id="patch_5">
    <path d="M 210 173.958534 
Q 210 156.066157 210 139.291814 
" clip-path="url(#p6a69514ee4)" style="fill: none; stroke-dasharray: 3.7,1.6; stroke-dashoffset: 0; stroke: #454545; stroke-linecap: round"/>
    <path d="M 207.8 143.691814 
L 210 139.291814 
L 212.2 143.691814 
z
" clip-path="url(#p6a69514ee4)" style="fill: #454545; stroke-dasharray: 3.7,1.6; stroke-dashoffset: 0; stroke: #454545; stroke-linecap: round"/>
   </g>
   <g id="patch_6">
    <path d="M 286.5576 135.699408 
L 391.2384 135.699408 
Q 394.3632 135.699408 394.3632 133.610256 
L 394.3632 42.732144 
Q 394.3632 40.642992 391.2384 40.642992 
L 286.5576 40.642992 
Q 283.4328 40.642992 283.4328 42.732144 
L 283.4328 133.610256 
Q 283.4328 135.699408 286.5576 135.699408 
z
" clip-path="url(#p6a69514ee4)" style="fill: #cbe3f3; stroke: #454545; stroke-width: 0.9; stroke-linejoin: miter"/>
   </g>
   <g id="patch_7">
    <path d="M 338.898 173.958534 
Q 338.898 156.066157 338.898 139.291814 
" clip-path="url(#p6a69514ee4)" style="fill: none; stroke-dasharray: 3.7,1.6; stroke-dashoffset: 0; stroke: #454545; stroke-linecap: round"/>
    <path d="M 336.698 143.691814 
L 338.898 139.291814 
L 341.098 143.691814 
z
" clip-path="url(#p6a69514ee4)" style="fill: #454545; stroke-dasharray: 3.7,1.6; stroke-dashoffset: 0; stroke: #454545; stroke-linecap: round"/>
   </g>
   <g id="patch_8">
    <path d="M 28.7616 234.934128 
L 391.2384 234.934128 
Q 394.3632 234.934128 394.3632 232.844976 
L 394.3632 178.527024 
Q 394.3632 176.437872 391.2384 176.437872 
L 28.7616 176.437872 
Q 25.6368 176.437872 25.6368 178.527024 
L 25.6368 232.844976 
Q 25.6368 234.934128 28.7616 234.934128 
z
" clip-path="url(#p6a69514ee4)" style="fill: #eeeeee; stroke: #454545; stroke-width: 0.9; stroke-linejoin: miter"/>
   </g>
   <g id="patch_9">
    <path d="M 153.7536 229.711248 
L 266.2464 229.711248 
Q 269.3712 229.711248 269.3712 227.622096 
L 269.3712 207.252864 
Q 269.3712 205.163712 266.2464 205.163712 
L 153.7536 205.163712 
Q 150.6288 205.163712 150.6288 207.252864 
L 150.6288 227.622096 
Q 150.6288 229.711248 153.7536 229.711248 
z
" clip-path="url(#p6a69514ee4)" style="fill: #f9dec0; stroke: #454545; stroke-width: 0.9; stroke-linejoin: miter"/>
   </g>
   <g id="text_1">
    <!-- microVM 1 -->
    <g style="fill: #252525" transform="translate(52.067625 66.628988) scale(0.12 -0.12)">
     <defs>
      <path id="SourceHanSansCN-Regular-4e" d="M 589 0 
L 589 3475 
L 1069 3475 
L 1126 2970 
L 1139 2970 
Q 1370 3219 1642 3392 
Q 1914 3565 2221 3565 
Q 2624 3565 2848 3385 
Q 3072 3206 3181 2899 
Q 3456 3194 3734 3379 
Q 4013 3565 4333 3565 
Q 4864 3565 5123 3216 
Q 5382 2867 5382 2202 
L 5382 0 
L 4800 0 
L 4800 2125 
Q 4800 2618 4643 2835 
Q 4486 3053 4154 3053 
Q 3955 3053 3740 2921 
Q 3526 2790 3277 2522 
L 3277 0 
L 2694 0 
L 2694 2125 
Q 2694 2618 2537 2835 
Q 2381 3053 2048 3053 
Q 1850 3053 1632 2921 
Q 1414 2790 1178 2522 
L 1178 0 
L 589 0 
z
" transform="scale(0.015625)"/>
      <path id="SourceHanSansCN-Regular-4a" d="M 589 0 
L 589 3475 
L 1178 3475 
L 1178 0 
L 589 0 
z
M 877 4192 
Q 704 4192 595 4297 
Q 486 4403 486 4582 
Q 486 4755 595 4857 
Q 704 4960 877 4960 
Q 1050 4960 1158 4857 
Q 1267 4755 1267 4582 
Q 1267 4403 1158 4297 
Q 1050 4192 877 4192 
z
" transform="scale(0.015625)"/>
      <path id="SourceHanSansCN-Regular-44" d="M 1971 -83 
Q 1504 -83 1133 131 
Q 762 346 547 752 
Q 333 1158 333 1734 
Q 333 2317 563 2723 
Q 794 3130 1178 3347 
Q 1562 3565 2003 3565 
Q 2342 3565 2592 3449 
Q 2842 3334 3014 3155 
L 2726 2797 
Q 2592 2925 2422 2998 
Q 2253 3072 2029 3072 
Q 1722 3072 1472 2905 
Q 1222 2739 1078 2438 
Q 934 2138 934 1734 
Q 934 1338 1072 1037 
Q 1210 736 1453 569 
Q 1696 403 2016 403 
Q 2253 403 2464 492 
Q 2675 582 2829 723 
L 3085 365 
Q 2867 160 2582 38 
Q 2298 -83 1971 -83 
z
" transform="scale(0.015625)"/>
      <path id="SourceHanSansCN-Regular-53" d="M 589 0 
L 589 3475 
L 1069 3475 
L 1126 2842 
L 1139 2842 
Q 1318 3174 1574 3369 
Q 1830 3565 2125 3565 
Q 2246 3565 2332 3549 
Q 2419 3533 2496 3488 
L 2368 2995 
Q 2291 3021 2224 3030 
Q 2157 3040 2048 3040 
Q 1837 3040 1593 2857 
Q 1350 2675 1178 2234 
L 1178 0 
L 589 0 
z
" transform="scale(0.015625)"/>
      <path id="SourceHanSansCN-Regular-50" d="M 1939 -83 
Q 1517 -83 1145 131 
Q 774 346 553 752 
Q 333 1158 333 1734 
Q 333 2317 553 2723 
Q 774 3130 1145 3347 
Q 1517 3565 1939 3565 
Q 2259 3565 2550 3443 
Q 2842 3322 3066 3085 
Q 3290 2848 3418 2509 
Q 3546 2170 3546 1734 
Q 3546 1158 3322 752 
Q 3098 346 2733 131 
Q 2368 -83 1939 -83 
z
M 1939 403 
Q 2240 403 2467 569 
Q 2694 736 2822 1037 
Q 2950 1338 2950 1734 
Q 2950 2138 2822 2438 
Q 2694 2739 2467 2905 
Q 2240 3072 1939 3072 
Q 1638 3072 1411 2905 
Q 1184 2739 1059 2438 
Q 934 2138 934 1734 
Q 934 1338 1059 1037 
Q 1184 736 1411 569 
Q 1638 403 1939 403 
z
" transform="scale(0.015625)"/>
      <path id="SourceHanSansCN-Regular-37" d="M 1472 0 
L 6 4691 
L 627 4691 
L 1357 2150 
Q 1440 1869 1513 1622 
Q 1587 1376 1660 1129 
Q 1734 883 1818 602 
L 1843 602 
Q 1926 883 1996 1129 
Q 2067 1376 2137 1622 
Q 2208 1869 2291 2150 
L 3078 4691 
L 3680 4691 
L 2157 0 
L 1472 0 
z
" transform="scale(0.015625)"/>
      <path id="SourceHanSansCN-Regular-2e" d="M 646 0 
L 646 4691 
L 1357 4691 
L 2253 2182 
Q 2342 1946 2425 1696 
Q 2509 1446 2592 1203 
L 2618 1203 
Q 2707 1446 2787 1696 
Q 2867 1946 2944 2182 
L 3840 4691 
L 4550 4691 
L 4550 0 
L 4000 0 
L 4000 2598 
Q 4000 2803 4013 3056 
Q 4026 3309 4045 3568 
Q 4064 3827 4077 4032 
L 4051 4032 
L 3674 2912 
L 2790 474 
L 2394 474 
L 1504 2912 
L 1126 4032 
L 1101 4032 
Q 1126 3827 1142 3568 
Q 1158 3309 1168 3056 
Q 1178 2803 1178 2598 
L 1178 0 
L 646 0 
z
" transform="scale(0.015625)"/>
      <path id="SourceHanSansCN-Regular-1" transform="scale(0.015625)"/>
      <path id="SourceHanSansCN-Regular-7786" d="M 563 0 
L 563 486 
L 1613 486 
L 1613 3853 
L 774 3853 
L 774 4224 
Q 1088 4282 1321 4365 
Q 1555 4448 1747 4563 
L 2195 4563 
L 2195 486 
L 3136 486 
L 3136 0 
L 563 0 
z
" transform="scale(0.015625)"/>
     </defs>
     <use xlink:href="#SourceHanSansCN-Regular-4e"/>
     <use xlink:href="#SourceHanSansCN-Regular-4a" transform="translate(92.59375 0)"/>
     <use xlink:href="#SourceHanSansCN-Regular-44" transform="translate(120.09375 0)"/>
     <use xlink:href="#SourceHanSansCN-Regular-53" transform="translate(171.09375 0)"/>
     <use xlink:href="#SourceHanSansCN-Regular-50" transform="translate(208.796875 0)"/>
     <use xlink:href="#SourceHanSansCN-Regular-37" transform="translate(267.296875 0)"/>
     <use xlink:href="#SourceHanSansCN-Regular-2e" transform="translate(324.796875 0)"/>
     <use xlink:href="#SourceHanSansCN-Regular-1" transform="translate(406 0)"/>
     <use xlink:href="#SourceHanSansCN-Regular-7786" transform="translate(428.40625 0)"/>
    </g>
   </g>
   <g id="text_2">
    <!-- 映射宿主机页 -->
    <g style="fill: #252525" transform="translate(48.102 110.647608) scale(0.11 -0.11)">
     <defs>
      <path id="SourceHanSansCN-Regular-3a4a" d="M 6182 2234 
L 6182 1792 
L 2374 1792 
L 2374 2234 
L 6182 2234 
z
M 5811 4352 
L 5811 2054 
L 5363 2054 
L 5363 3910 
L 3238 3910 
L 3238 2054 
L 2803 2054 
L 2803 4352 
L 5811 4352 
z
M 4474 2906 
Q 4474 2394 4406 1904 
Q 4339 1414 4128 976 
Q 3917 538 3501 163 
Q 3085 -211 2387 -499 
Q 2355 -448 2304 -381 
Q 2253 -314 2192 -250 
Q 2131 -186 2080 -141 
Q 2733 128 3123 461 
Q 3514 794 3709 1187 
Q 3904 1581 3968 2013 
Q 4032 2445 4032 2906 
L 4032 5344 
L 4474 5344 
L 4474 2906 
z
M 4544 2048 
Q 4736 1280 5145 707 
Q 5555 134 6202 -141 
Q 6150 -186 6089 -256 
Q 6029 -326 5974 -400 
Q 5920 -474 5888 -531 
Q 5203 -192 4777 445 
Q 4352 1082 4141 1958 
L 4544 2048 
z
M 2176 4909 
L 2176 704 
L 710 704 
L 710 1139 
L 1728 1139 
L 1728 4474 
L 710 4474 
L 710 4909 
L 2176 4909 
z
M 2003 3046 
L 2003 2624 
L 730 2624 
L 730 3046 
L 2003 3046 
z
M 928 4909 
L 928 179 
L 486 179 
L 486 4909 
L 928 4909 
z
" transform="scale(0.015625)"/>
      <path id="SourceHanSansCN-Regular-3039" d="M 2630 3750 
L 2630 3386 
L 1043 3386 
L 1043 3750 
L 2630 3750 
z
M 2630 2854 
L 2630 2496 
L 1043 2496 
L 1043 2854 
L 2630 2854 
z
M 2176 5312 
Q 2086 5088 1993 4864 
Q 1901 4640 1818 4486 
L 1414 4557 
Q 1491 4730 1568 4966 
Q 1645 5203 1683 5382 
L 2176 5312 
z
M 2662 4659 
L 2662 4275 
L 1222 4275 
L 1222 1690 
L 787 1690 
L 787 4659 
L 2662 4659 
z
M 2944 26 
Q 2944 -166 2889 -275 
Q 2835 -384 2714 -442 
Q 2579 -493 2355 -505 
Q 2131 -518 1792 -518 
Q 1773 -429 1728 -304 
Q 1683 -179 1638 -96 
Q 1882 -102 2090 -102 
Q 2298 -102 2368 -96 
Q 2438 -96 2467 -70 
Q 2496 -45 2496 26 
L 2496 4659 
L 2944 4659 
L 2944 26 
z
M 2650 1786 
Q 2400 1370 2061 995 
Q 1722 621 1325 313 
Q 928 6 518 -218 
Q 486 -173 432 -109 
Q 378 -45 314 22 
Q 250 90 198 128 
Q 608 326 989 601 
Q 1370 877 1690 1209 
Q 2010 1542 2221 1907 
L 2650 1786 
z
M 6131 3898 
L 6131 3437 
L 3187 3437 
L 3187 3898 
L 6131 3898 
z
M 5434 90 
Q 5434 -134 5370 -249 
Q 5306 -365 5165 -416 
Q 5024 -474 4771 -493 
Q 4518 -512 4128 -506 
Q 4109 -416 4064 -281 
Q 4019 -147 3962 -51 
Q 4262 -58 4505 -61 
Q 4749 -64 4819 -58 
Q 4909 -51 4944 -22 
Q 4979 6 4979 90 
L 4979 5350 
L 5434 5350 
L 5434 90 
z
M 3782 2861 
Q 3955 2630 4108 2364 
Q 4262 2099 4384 1840 
Q 4506 1581 4570 1370 
L 4160 1184 
Q 4102 1395 3987 1657 
Q 3872 1920 3721 2192 
Q 3571 2464 3411 2694 
L 3782 2861 
z
M 2714 1952 
L 2714 1523 
L 333 1523 
L 333 1952 
L 2714 1952 
z
" transform="scale(0.015625)"/>
      <path id="SourceHanSansCN-Regular-2ff4" d="M 5894 4800 
L 5894 3840 
L 5402 3840 
L 5402 4384 
L 1011 4384 
L 1011 3731 
L 538 3731 
L 538 4800 
L 5894 4800 
z
M 5978 3718 
L 5978 3283 
L 2214 3283 
L 2214 3718 
L 5978 3718 
z
M 5389 1478 
L 5389 1075 
L 2688 1075 
L 2688 1478 
L 5389 1478 
z
M 5389 269 
L 5389 -154 
L 2688 -154 
L 2688 269 
L 5389 269 
z
M 5651 2643 
L 5651 -486 
L 5165 -486 
L 5165 2227 
L 2938 2227 
L 2938 -518 
L 2477 -518 
L 2477 2643 
L 5651 2643 
z
M 4333 3424 
Q 4237 3130 4144 2826 
Q 4051 2522 3962 2310 
L 3546 2426 
Q 3597 2579 3645 2774 
Q 3693 2970 3737 3171 
Q 3782 3373 3802 3539 
L 4333 3424 
z
M 2157 3904 
Q 1965 3456 1702 3030 
Q 1440 2605 1136 2233 
Q 832 1862 518 1581 
Q 493 1632 435 1712 
Q 378 1792 320 1872 
Q 262 1952 211 1997 
Q 666 2368 1062 2912 
Q 1459 3456 1715 4045 
L 2157 3904 
z
M 1581 3290 
L 1619 3270 
L 1619 -512 
L 1158 -512 
L 1158 2867 
L 1581 3290 
z
M 3238 5414 
Q 3341 5242 3449 5021 
Q 3558 4800 3610 4646 
L 3098 4486 
Q 3040 4640 2941 4867 
Q 2842 5094 2739 5280 
L 3238 5414 
z
" transform="scale(0.015625)"/>
      <path id="SourceHanSansCN-Regular-2287" d="M 5741 4096 
L 5741 3629 
L 659 3629 
L 659 4096 
L 5741 4096 
z
M 5478 2221 
L 5478 1754 
L 954 1754 
L 954 2221 
L 5478 2221 
z
M 6067 173 
L 6067 -294 
L 358 -294 
L 358 173 
L 6067 173 
z
M 3456 3718 
L 3456 -70 
L 2938 -70 
L 2938 3718 
L 3456 3718 
z
M 2784 5350 
Q 2989 5210 3216 5027 
Q 3443 4845 3641 4659 
Q 3840 4474 3968 4320 
L 3552 4019 
Q 3437 4166 3241 4355 
Q 3046 4544 2825 4739 
Q 2605 4934 2394 5088 
L 2784 5350 
z
" transform="scale(0.015625)"/>
      <path id="SourceHanSansCN-Regular-3b61" d="M 5069 5011 
L 5069 4557 
L 3469 4557 
L 3469 5011 
L 5069 5011 
z
M 3654 2957 
Q 3654 2560 3616 2102 
Q 3578 1645 3472 1177 
Q 3366 710 3155 278 
Q 2944 -154 2598 -512 
Q 2566 -467 2499 -406 
Q 2432 -346 2358 -288 
Q 2285 -230 2234 -205 
Q 2554 134 2746 528 
Q 2938 922 3034 1341 
Q 3130 1760 3158 2173 
Q 3187 2586 3187 2957 
L 3187 5011 
L 3654 5011 
L 3654 2957 
z
M 5331 397 
Q 5331 243 5340 150 
Q 5350 58 5376 38 
Q 5427 0 5491 0 
Q 5523 0 5577 0 
Q 5632 0 5677 0 
Q 5766 0 5805 45 
Q 5830 77 5846 125 
Q 5862 173 5869 288 
Q 5882 397 5888 640 
Q 5894 883 5894 1203 
Q 5971 1133 6073 1078 
Q 6176 1024 6266 998 
Q 6266 819 6256 617 
Q 6246 416 6236 249 
Q 6227 83 6214 0 
Q 6170 -262 6035 -358 
Q 5965 -403 5878 -425 
Q 5792 -448 5696 -448 
Q 5626 -448 5530 -448 
Q 5434 -448 5370 -448 
Q 5280 -448 5177 -419 
Q 5075 -390 5005 -326 
Q 4947 -275 4915 -204 
Q 4883 -134 4870 16 
Q 4858 166 4858 435 
L 4858 5011 
L 5331 5011 
L 5331 397 
z
M 2810 4006 
L 2810 3546 
L 333 3546 
L 333 4006 
L 2810 4006 
z
M 1862 5376 
L 1862 -506 
L 1395 -506 
L 1395 5376 
L 1862 5376 
z
M 1690 3616 
Q 1600 3226 1465 2810 
Q 1331 2394 1164 1997 
Q 998 1600 812 1261 
Q 627 922 429 685 
Q 390 781 313 905 
Q 237 1030 179 1120 
Q 358 1338 540 1635 
Q 723 1933 880 2285 
Q 1037 2637 1165 3001 
Q 1293 3366 1376 3718 
L 1690 3616 
z
M 1818 3014 
Q 1888 2950 2032 2796 
Q 2176 2643 2342 2457 
Q 2509 2272 2646 2115 
Q 2784 1958 2842 1894 
L 2541 1498 
Q 2470 1613 2345 1789 
Q 2221 1965 2073 2160 
Q 1926 2355 1792 2521 
Q 1658 2688 1574 2784 
L 1818 3014 
z
" transform="scale(0.015625)"/>
      <path id="SourceHanSansCN-Regular-6c6f" d="M 5984 5024 
L 5984 4576 
L 474 4576 
L 474 5024 
L 5984 5024 
z
M 3482 4710 
Q 3360 4422 3219 4124 
Q 3078 3827 2957 3610 
L 2528 3699 
Q 2605 3853 2681 4048 
Q 2758 4243 2828 4438 
Q 2899 4634 2938 4794 
L 3482 4710 
z
M 3462 1798 
Q 3462 1536 3401 1273 
Q 3341 1011 3174 761 
Q 3008 512 2694 281 
Q 2381 51 1872 -147 
Q 1363 -346 614 -512 
Q 589 -461 537 -387 
Q 486 -314 432 -240 
Q 378 -166 320 -115 
Q 1037 19 1513 195 
Q 1990 371 2281 563 
Q 2573 755 2723 963 
Q 2874 1171 2922 1379 
Q 2970 1587 2970 1798 
L 2970 2957 
L 3462 2957 
L 3462 1798 
z
M 3770 1030 
Q 4045 909 4349 761 
Q 4653 614 4953 454 
Q 5254 294 5516 140 
Q 5779 -13 5965 -147 
L 5670 -531 
Q 5491 -397 5235 -237 
Q 4979 -77 4681 89 
Q 4384 256 4077 416 
Q 3770 576 3488 704 
L 3770 1030 
z
M 5370 3808 
L 5370 832 
L 4864 832 
L 4864 3360 
L 1587 3360 
L 1587 819 
L 1094 819 
L 1094 3808 
L 5370 3808 
z
" transform="scale(0.015625)"/>
     </defs>
     <use xlink:href="#SourceHanSansCN-Regular-3a4a"/>
     <use xlink:href="#SourceHanSansCN-Regular-3039" transform="translate(100 0)"/>
     <use xlink:href="#SourceHanSansCN-Regular-2ff4" transform="translate(200 0)"/>
     <use xlink:href="#SourceHanSansCN-Regular-2287" transform="translate(300 0)"/>
     <use xlink:href="#SourceHanSansCN-Regular-3b61" transform="translate(400 0)"/>
     <use xlink:href="#SourceHanSansCN-Regular-6c6f" transform="translate(500 0)"/>
    </g>
   </g>
   <g id="text_3">
    <!-- microVM 2 -->
    <g style="fill: #252525" transform="translate(180.965625 66.628988) scale(0.12 -0.12)">
     <defs>
      <path id="SourceHanSansCN-Regular-7787" d="M 282 0 
L 282 358 
Q 973 1030 1449 1548 
Q 1926 2067 2179 2489 
Q 2432 2912 2432 3283 
Q 2432 3546 2339 3747 
Q 2246 3949 2054 4061 
Q 1862 4173 1568 4173 
Q 1280 4173 1033 4013 
Q 787 3853 595 3629 
L 269 3942 
Q 550 4262 873 4454 
Q 1197 4646 1638 4646 
Q 2061 4646 2365 4480 
Q 2669 4314 2838 4013 
Q 3008 3712 3008 3315 
Q 3008 2874 2758 2432 
Q 2509 1990 2077 1510 
Q 1645 1030 1088 461 
Q 1274 474 1475 490 
Q 1677 506 1850 506 
L 3232 506 
L 3232 0 
L 282 0 
z
" transform="scale(0.015625)"/>
     </defs>
     <use xlink:href="#SourceHanSansCN-Regular-4e"/>
     <use xlink:href="#SourceHanSansCN-Regular-4a" transform="translate(92.59375 0)"/>
     <use xlink:href="#SourceHanSansCN-Regular-44" transform="translate(120.09375 0)"/>
     <use xlink:href="#SourceHanSansCN-Regular-53" transform="translate(171.09375 0)"/>
     <use xlink:href="#SourceHanSansCN-Regular-50" transform="translate(208.796875 0)"/>
     <use xlink:href="#SourceHanSansCN-Regular-37" transform="translate(267.296875 0)"/>
     <use xlink:href="#SourceHanSansCN-Regular-2e" transform="translate(324.796875 0)"/>
     <use xlink:href="#SourceHanSansCN-Regular-1" transform="translate(406 0)"/>
     <use xlink:href="#SourceHanSansCN-Regular-7787" transform="translate(428.40625 0)"/>
    </g>
   </g>
   <g id="text_4">
    <!-- 映射宿主机页 -->
    <g style="fill: #252525" transform="translate(177 110.647608) scale(0.11 -0.11)">
     <use xlink:href="#SourceHanSansCN-Regular-3a4a"/>
     <use xlink:href="#SourceHanSansCN-Regular-3039" transform="translate(100 0)"/>
     <use xlink:href="#SourceHanSansCN-Regular-2ff4" transform="translate(200 0)"/>
     <use xlink:href="#SourceHanSansCN-Regular-2287" transform="translate(300 0)"/>
     <use xlink:href="#SourceHanSansCN-Regular-3b61" transform="translate(400 0)"/>
     <use xlink:href="#SourceHanSansCN-Regular-6c6f" transform="translate(500 0)"/>
    </g>
   </g>
   <g id="text_5">
    <!-- microVM 3 -->
    <g style="fill: #252525" transform="translate(309.863625 66.628988) scale(0.12 -0.12)">
     <defs>
      <path id="SourceHanSansCN-Regular-7788" d="M 1683 -83 
Q 1318 -83 1040 6 
Q 762 96 550 243 
Q 339 390 186 563 
L 486 941 
Q 691 730 969 566 
Q 1248 403 1645 403 
Q 1926 403 2140 505 
Q 2355 608 2476 797 
Q 2598 986 2598 1242 
Q 2598 1517 2460 1718 
Q 2323 1920 2003 2032 
Q 1683 2144 1139 2144 
L 1139 2598 
Q 1626 2598 1907 2710 
Q 2189 2822 2313 3017 
Q 2438 3213 2438 3450 
Q 2438 3782 2227 3977 
Q 2016 4173 1645 4173 
Q 1363 4173 1116 4041 
Q 870 3910 672 3706 
L 358 4077 
Q 627 4320 944 4483 
Q 1261 4646 1664 4646 
Q 2061 4646 2371 4512 
Q 2682 4378 2858 4118 
Q 3034 3859 3034 3494 
Q 3034 3078 2803 2809 
Q 2573 2541 2202 2406 
L 2202 2381 
Q 2477 2310 2701 2156 
Q 2925 2003 3059 1769 
Q 3194 1536 3194 1216 
Q 3194 806 2989 518 
Q 2784 230 2445 73 
Q 2106 -83 1683 -83 
z
" transform="scale(0.015625)"/>
     </defs>
     <use xlink:href="#SourceHanSansCN-Regular-4e"/>
     <use xlink:href="#SourceHanSansCN-Regular-4a" transform="translate(92.59375 0)"/>
     <use xlink:href="#SourceHanSansCN-Regular-44" transform="translate(120.09375 0)"/>
     <use xlink:href="#SourceHanSansCN-Regular-53" transform="translate(171.09375 0)"/>
     <use xlink:href="#SourceHanSansCN-Regular-50" transform="translate(208.796875 0)"/>
     <use xlink:href="#SourceHanSansCN-Regular-37" transform="translate(267.296875 0)"/>
     <use xlink:href="#SourceHanSansCN-Regular-2e" transform="translate(324.796875 0)"/>
     <use xlink:href="#SourceHanSansCN-Regular-1" transform="translate(406 0)"/>
     <use xlink:href="#SourceHanSansCN-Regular-7788" transform="translate(428.40625 0)"/>
    </g>
   </g>
   <g id="text_6">
    <!-- 映射宿主机页 -->
    <g style="fill: #252525" transform="translate(305.898 110.647608) scale(0.11 -0.11)">
     <use xlink:href="#SourceHanSansCN-Regular-3a4a"/>
     <use xlink:href="#SourceHanSansCN-Regular-3039" transform="translate(100 0)"/>
     <use xlink:href="#SourceHanSansCN-Regular-2ff4" transform="translate(200 0)"/>
     <use xlink:href="#SourceHanSansCN-Regular-2287" transform="translate(300 0)"/>
     <use xlink:href="#SourceHanSansCN-Regular-3b61" transform="translate(400 0)"/>
     <use xlink:href="#SourceHanSansCN-Regular-6c6f" transform="translate(500 0)"/>
    </g>
   </g>
   <g id="text_7">
    <!-- 宿主机 page cache -->
    <g style="fill: #252525" transform="translate(159.291562 198.815865) scale(0.12 -0.12)">
     <defs>
      <path id="SourceHanSansCN-Regular-51" d="M 589 -1466 
L 589 3475 
L 1069 3475 
L 1126 3072 
L 1139 3072 
Q 1376 3270 1661 3417 
Q 1946 3565 2246 3565 
Q 2694 3565 3004 3344 
Q 3315 3123 3472 2726 
Q 3629 2330 3629 1792 
Q 3629 1197 3414 777 
Q 3200 358 2857 137 
Q 2515 -83 2118 -83 
Q 1882 -83 1638 22 
Q 1395 128 1158 320 
L 1178 -288 
L 1178 -1466 
L 589 -1466 
z
M 2022 410 
Q 2310 410 2537 573 
Q 2765 736 2893 1046 
Q 3021 1357 3021 1786 
Q 3021 2170 2928 2461 
Q 2835 2752 2636 2912 
Q 2438 3072 2099 3072 
Q 1882 3072 1654 2950 
Q 1427 2829 1178 2598 
L 1178 768 
Q 1408 570 1632 490 
Q 1856 410 2022 410 
z
" transform="scale(0.015625)"/>
      <path id="SourceHanSansCN-Regular-42" d="M 1389 -83 
Q 1101 -83 870 32 
Q 640 147 509 368 
Q 378 589 378 902 
Q 378 1472 886 1776 
Q 1395 2080 2509 2202 
Q 2509 2426 2448 2627 
Q 2387 2829 2233 2953 
Q 2080 3078 1792 3078 
Q 1491 3078 1225 2966 
Q 960 2854 749 2720 
L 525 3110 
Q 685 3219 896 3321 
Q 1107 3424 1356 3494 
Q 1606 3565 1888 3565 
Q 2310 3565 2576 3385 
Q 2842 3206 2966 2889 
Q 3091 2573 3091 2138 
L 3091 0 
L 2611 0 
L 2560 416 
L 2541 416 
Q 2298 211 2006 64 
Q 1715 -83 1389 -83 
z
M 1555 390 
Q 1805 390 2032 505 
Q 2259 621 2509 845 
L 2509 1811 
Q 1926 1747 1580 1628 
Q 1235 1510 1088 1340 
Q 941 1171 941 941 
Q 941 640 1120 515 
Q 1299 390 1555 390 
z
" transform="scale(0.015625)"/>
      <path id="SourceHanSansCN-Regular-48" d="M 1760 -1600 
Q 1338 -1600 1011 -1491 
Q 685 -1382 505 -1174 
Q 326 -966 326 -672 
Q 326 -448 460 -240 
Q 595 -32 838 115 
L 838 147 
Q 704 230 614 371 
Q 525 512 525 717 
Q 525 934 649 1100 
Q 774 1267 909 1363 
L 909 1389 
Q 736 1523 595 1766 
Q 454 2010 454 2323 
Q 454 2707 633 2985 
Q 813 3264 1110 3414 
Q 1408 3565 1754 3565 
Q 1907 3565 2032 3539 
Q 2157 3514 2246 3475 
L 3456 3475 
L 3456 3027 
L 2733 3027 
L 2733 3002 
Q 2861 2886 2944 2713 
Q 3027 2541 3027 2298 
Q 3027 1933 2857 1664 
Q 2688 1395 2400 1248 
Q 2112 1101 1754 1101 
Q 1632 1101 1494 1133 
Q 1357 1165 1242 1222 
Q 1146 1146 1082 1050 
Q 1018 954 1018 806 
Q 1018 646 1146 537 
Q 1274 429 1626 429 
L 2310 429 
Q 2912 429 3216 230 
Q 3520 32 3520 -397 
Q 3520 -717 3302 -992 
Q 3085 -1267 2691 -1433 
Q 2298 -1600 1760 -1600 
z
M 1754 1498 
Q 1958 1498 2128 1600 
Q 2298 1702 2397 1888 
Q 2496 2074 2496 2323 
Q 2496 2586 2397 2765 
Q 2298 2944 2131 3040 
Q 1965 3136 1754 3136 
Q 1555 3136 1385 3040 
Q 1216 2944 1117 2765 
Q 1018 2586 1018 2323 
Q 1018 2074 1120 1888 
Q 1222 1702 1388 1600 
Q 1555 1498 1754 1498 
z
M 1843 -1197 
Q 2176 -1197 2422 -1094 
Q 2669 -992 2806 -829 
Q 2944 -666 2944 -493 
Q 2944 -243 2765 -147 
Q 2586 -51 2240 -51 
L 1638 -51 
Q 1542 -51 1424 -41 
Q 1306 -32 1190 0 
Q 1005 -128 921 -285 
Q 838 -442 838 -589 
Q 838 -864 1104 -1030 
Q 1370 -1197 1843 -1197 
z
" transform="scale(0.015625)"/>
      <path id="SourceHanSansCN-Regular-46" d="M 1997 -83 
Q 1530 -83 1152 134 
Q 774 352 553 758 
Q 333 1165 333 1734 
Q 333 2163 461 2499 
Q 589 2835 809 3075 
Q 1030 3315 1312 3440 
Q 1594 3565 1888 3565 
Q 2336 3565 2643 3366 
Q 2950 3168 3113 2800 
Q 3277 2432 3277 1933 
Q 3277 1837 3270 1753 
Q 3264 1670 3251 1600 
L 755 1600 
L 749 2016 
L 2765 2016 
Q 2765 2541 2537 2819 
Q 2310 3098 1901 3098 
Q 1658 3098 1424 2954 
Q 1190 2810 1036 2512 
Q 883 2214 890 1741 
Q 896 1293 1056 989 
Q 1216 685 1481 534 
Q 1747 384 2061 384 
Q 2317 384 2534 451 
Q 2752 518 2938 640 
L 3136 269 
Q 2912 122 2630 19 
Q 2349 -83 1997 -83 
z
" transform="scale(0.015625)"/>
      <path id="SourceHanSansCN-Regular-49" d="M 589 0 
L 589 5094 
L 1178 5094 
L 1178 3699 
L 1152 2982 
Q 1395 3226 1670 3395 
Q 1946 3565 2304 3565 
Q 2854 3565 3110 3216 
Q 3366 2867 3366 2202 
L 3366 0 
L 2784 0 
L 2784 2125 
Q 2784 2618 2627 2835 
Q 2470 3053 2125 3053 
Q 1856 3053 1645 2918 
Q 1434 2784 1178 2522 
L 1178 0 
L 589 0 
z
" transform="scale(0.015625)"/>
     </defs>
     <use xlink:href="#SourceHanSansCN-Regular-2ff4"/>
     <use xlink:href="#SourceHanSansCN-Regular-2287" transform="translate(100 0)"/>
     <use xlink:href="#SourceHanSansCN-Regular-3b61" transform="translate(200 0)"/>
     <use xlink:href="#SourceHanSansCN-Regular-1" transform="translate(300 0)"/>
     <use xlink:href="#SourceHanSansCN-Regular-51" transform="translate(322.40625 0)"/>
     <use xlink:href="#SourceHanSansCN-Regular-42" transform="translate(382.8125 0)"/>
     <use xlink:href="#SourceHanSansCN-Regular-48" transform="translate(439.109375 0)"/>
     <use xlink:href="#SourceHanSansCN-Regular-46" transform="translate(494.015625 0)"/>
     <use xlink:href="#SourceHanSansCN-Regular-1" transform="translate(549.421875 0)"/>
     <use xlink:href="#SourceHanSansCN-Regular-44" transform="translate(571.828125 0)"/>
     <use xlink:href="#SourceHanSansCN-Regular-42" transform="translate(621.734375 0)"/>
     <use xlink:href="#SourceHanSansCN-Regular-44" transform="translate(678.03125 0)"/>
     <use xlink:href="#SourceHanSansCN-Regular-49" transform="translate(729.03125 0)"/>
     <use xlink:href="#SourceHanSansCN-Regular-46" transform="translate(789.734375 0)"/>
    </g>
   </g>
   <g id="text_8">
    <!-- 镜像页（唯一一份） -->
    <g style="fill: #252525" transform="translate(160.5 221.61748) scale(0.11 -0.11)">
     <defs>
      <path id="SourceHanSansCN-Regular-695c" d="M 5933 4909 
L 5933 4512 
L 2854 4512 
L 2854 4909 
L 5933 4909 
z
M 6080 3757 
L 6080 3347 
L 2662 3347 
L 2662 3757 
L 6080 3757 
z
M 3757 4467 
Q 3834 4320 3901 4147 
Q 3968 3974 3987 3846 
L 3571 3738 
Q 3552 3872 3494 4051 
Q 3437 4230 3366 4378 
L 3757 4467 
z
M 5459 4352 
Q 5363 4147 5267 3939 
Q 5171 3731 5082 3578 
L 4704 3680 
Q 4787 3840 4876 4061 
Q 4966 4282 5011 4454 
L 5459 4352 
z
M 3398 1504 
L 5370 1504 
L 5370 1939 
L 3398 1939 
L 3398 1504 
z
M 3398 2259 
L 5370 2259 
L 5370 2682 
L 3398 2682 
L 3398 2259 
z
M 5811 3014 
L 5811 1171 
L 2963 1171 
L 2963 3014 
L 5811 3014 
z
M 4045 1274 
Q 4026 883 3946 592 
Q 3866 301 3699 86 
Q 3533 -128 3245 -275 
Q 2957 -422 2515 -531 
Q 2496 -474 2448 -403 
Q 2400 -333 2352 -265 
Q 2304 -198 2253 -160 
Q 2650 -77 2902 35 
Q 3155 147 3299 313 
Q 3443 480 3507 713 
Q 3571 947 3590 1274 
L 4045 1274 
z
M 4454 5414 
Q 4531 5267 4611 5084 
Q 4691 4902 4736 4774 
L 4288 4646 
Q 4250 4787 4176 4976 
Q 4102 5165 4026 5318 
L 4454 5414 
z
M 1549 5235 
Q 1427 4883 1260 4540 
Q 1094 4198 896 3897 
Q 698 3597 474 3366 
Q 454 3418 409 3501 
Q 365 3584 317 3673 
Q 269 3763 224 3808 
Q 512 4096 745 4505 
Q 979 4915 1120 5357 
L 1549 5235 
z
M 2438 4646 
L 2438 4211 
L 877 4211 
L 966 4646 
L 2438 4646 
z
M 1075 -13 
L 1235 186 
L 2458 902 
Q 2470 813 2502 691 
Q 2534 570 2566 493 
Q 2138 230 1875 60 
Q 1613 -109 1465 -205 
Q 1318 -301 1254 -352 
Q 1190 -403 1152 -454 
L 1075 -13 
z
M 2342 3501 
L 2342 3066 
L 659 3066 
L 659 3501 
L 2342 3501 
z
M 2522 2202 
L 2522 1760 
L 371 1760 
L 371 2202 
L 2522 2202 
z
M 1152 -454 
Q 1126 -390 1078 -313 
Q 1030 -237 982 -157 
Q 934 -77 890 -26 
Q 979 38 1107 188 
Q 1235 339 1235 550 
L 1235 3341 
L 1690 3341 
L 1690 109 
Q 1690 109 1635 70 
Q 1581 32 1501 -32 
Q 1421 -96 1337 -173 
Q 1254 -250 1203 -323 
Q 1152 -397 1152 -454 
z
M 5050 90 
Q 5050 -13 5078 -38 
Q 5107 -64 5203 -64 
Q 5235 -64 5321 -64 
Q 5408 -64 5497 -64 
Q 5587 -64 5626 -64 
Q 5690 -64 5722 -19 
Q 5754 26 5770 166 
Q 5786 307 5792 595 
Q 5862 550 5974 505 
Q 6086 461 6176 442 
Q 6163 90 6112 -99 
Q 6061 -288 5958 -361 
Q 5856 -435 5677 -435 
Q 5645 -435 5568 -435 
Q 5491 -435 5404 -435 
Q 5318 -435 5241 -435 
Q 5165 -435 5133 -435 
Q 4922 -435 4806 -390 
Q 4691 -346 4646 -230 
Q 4602 -115 4602 83 
L 4602 1267 
L 5050 1267 
L 5050 90 
z
" transform="scale(0.015625)"/>
      <path id="SourceHanSansCN-Regular-251a" d="M 4589 4922 
L 4589 4538 
L 3014 4538 
L 3014 4922 
L 4589 4922 
z
M 2720 3014 
L 5299 3014 
L 5299 3654 
L 2720 3654 
L 2720 3014 
z
M 5747 4026 
L 5747 2643 
L 2291 2643 
L 2291 4026 
L 5747 4026 
z
M 3635 2522 
Q 3949 2285 4150 1971 
Q 4352 1658 4448 1318 
Q 4544 979 4553 662 
Q 4563 346 4496 96 
Q 4429 -154 4288 -282 
Q 4166 -416 4035 -461 
Q 3904 -506 3731 -506 
Q 3648 -506 3545 -502 
Q 3443 -499 3328 -493 
Q 3328 -410 3302 -288 
Q 3277 -166 3219 -77 
Q 3341 -90 3449 -96 
Q 3558 -102 3642 -102 
Q 3738 -102 3811 -83 
Q 3885 -64 3955 19 
Q 4051 109 4096 307 
Q 4141 506 4125 762 
Q 4109 1018 4019 1299 
Q 3930 1581 3757 1849 
Q 3584 2118 3309 2330 
L 3635 2522 
z
M 4038 1811 
Q 3808 1594 3478 1370 
Q 3149 1146 2787 960 
Q 2426 774 2106 659 
Q 2061 730 1981 822 
Q 1901 915 1837 966 
Q 2157 1062 2515 1222 
Q 2874 1382 3194 1577 
Q 3514 1773 3725 1971 
L 4038 1811 
z
M 4403 1197 
Q 4141 890 3747 605 
Q 3354 320 2915 89 
Q 2477 -141 2061 -282 
Q 2010 -198 1930 -99 
Q 1850 0 1779 64 
Q 2195 186 2630 384 
Q 3066 582 3446 838 
Q 3827 1094 4070 1357 
L 4403 1197 
z
M 5818 2061 
Q 5600 1920 5337 1779 
Q 5075 1638 4816 1513 
Q 4557 1389 4333 1293 
L 4090 1549 
Q 4307 1651 4566 1792 
Q 4826 1933 5072 2086 
Q 5318 2240 5491 2368 
L 5818 2061 
z
M 3571 5286 
Q 3315 4800 2915 4291 
Q 2515 3782 1952 3347 
Q 1901 3424 1808 3517 
Q 1715 3610 1638 3654 
Q 1990 3904 2275 4201 
Q 2560 4499 2771 4800 
Q 2982 5101 3117 5370 
L 3571 5286 
z
M 4525 4922 
L 4614 4947 
L 4896 4742 
Q 4736 4467 4515 4182 
Q 4294 3898 4090 3699 
Q 4051 3770 3971 3846 
Q 3891 3923 3834 3968 
Q 3942 4083 4054 4233 
Q 4166 4384 4265 4544 
Q 4365 4704 4422 4838 
L 4422 4922 
L 4525 4922 
z
M 5069 1792 
Q 5165 1459 5331 1152 
Q 5498 845 5722 605 
Q 5946 365 6208 218 
Q 6131 160 6041 51 
Q 5952 -58 5894 -141 
Q 5613 32 5379 317 
Q 5146 602 4973 957 
Q 4800 1312 4691 1696 
L 5069 1792 
z
M 4269 3866 
Q 4269 3699 4230 3478 
Q 4192 3258 4077 3008 
Q 3962 2758 3728 2505 
Q 3494 2253 3100 2019 
Q 2707 1786 2112 1594 
Q 2067 1651 1990 1740 
Q 1914 1830 1837 1894 
Q 2400 2067 2771 2281 
Q 3142 2496 3363 2720 
Q 3584 2944 3693 3158 
Q 3802 3373 3837 3558 
Q 3872 3744 3872 3878 
L 3872 3904 
L 4269 3904 
L 4269 3866 
z
M 2131 5216 
Q 1933 4672 1670 4144 
Q 1408 3616 1104 3152 
Q 800 2688 467 2323 
Q 442 2381 390 2470 
Q 339 2560 284 2653 
Q 230 2746 186 2797 
Q 486 3110 761 3523 
Q 1037 3936 1273 4403 
Q 1510 4870 1677 5350 
L 2131 5216 
z
M 1466 4102 
L 1472 4096 
L 1472 -493 
L 1018 -493 
L 1018 3648 
L 1466 4102 
z
" transform="scale(0.015625)"/>
      <path id="SourceHanSansCN-Regular-7463" d="M 4448 2432 
Q 4448 3059 4605 3603 
Q 4762 4147 5050 4617 
Q 5338 5088 5722 5478 
L 6106 5280 
Q 5741 4902 5472 4457 
Q 5203 4013 5059 3510 
Q 4915 3008 4915 2432 
Q 4915 1862 5059 1356 
Q 5203 851 5472 409 
Q 5741 -32 6106 -416 
L 5722 -614 
Q 5338 -218 5050 249 
Q 4762 717 4605 1264 
Q 4448 1811 4448 2432 
z
" transform="scale(0.015625)"/>
      <path id="SourceHanSansCN-Regular-2970" d="M 5850 2970 
L 5850 2534 
L 3123 2534 
L 3123 2970 
L 5850 2970 
z
M 5850 1709 
L 5850 1274 
L 3123 1274 
L 3123 1709 
L 5850 1709 
z
M 6093 397 
L 6093 -51 
L 3110 -51 
L 3110 397 
L 6093 397 
z
M 4826 4064 
L 4826 154 
L 4371 154 
L 4371 4064 
L 4826 4064 
z
M 5984 4218 
L 5984 3782 
L 3322 3782 
L 3322 -518 
L 2867 -518 
L 2867 3917 
L 3155 4218 
L 3322 4218 
L 5984 4218 
z
M 3866 5216 
Q 3706 4781 3485 4317 
Q 3264 3853 2992 3427 
Q 2720 3002 2406 2669 
Q 2374 2726 2320 2790 
Q 2266 2854 2211 2921 
Q 2157 2989 2112 3034 
Q 2400 3334 2643 3728 
Q 2886 4122 3078 4541 
Q 3270 4960 3386 5344 
L 3866 5216 
z
M 4602 5325 
Q 4736 5107 4867 4848 
Q 4998 4589 5062 4397 
L 4634 4211 
Q 4576 4397 4451 4669 
Q 4326 4941 4198 5158 
L 4602 5325 
z
M 2099 4787 
L 2099 1062 
L 710 1062 
L 710 1530 
L 1658 1530 
L 1658 4326 
L 710 4326 
L 710 4787 
L 2099 4787 
z
M 909 4787 
L 909 563 
L 467 563 
L 467 4787 
L 909 4787 
z
" transform="scale(0.015625)"/>
      <path id="SourceHanSansCN-Regular-224c" d="M 6144 2758 
L 6144 2234 
L 282 2234 
L 282 2758 
L 6144 2758 
z
" transform="scale(0.015625)"/>
      <path id="SourceHanSansCN-Regular-2349" d="M 2118 5216 
Q 1926 4678 1670 4150 
Q 1414 3622 1116 3155 
Q 819 2688 493 2323 
Q 467 2381 419 2470 
Q 371 2560 313 2653 
Q 256 2746 211 2797 
Q 506 3110 774 3523 
Q 1043 3936 1270 4403 
Q 1498 4870 1658 5350 
L 2118 5216 
z
M 1030 -512 
L 1030 3674 
L 1504 4147 
L 1510 4141 
L 1510 -512 
L 1030 -512 
z
M 3693 5107 
Q 3456 4269 3059 3574 
Q 2662 2880 2112 2413 
Q 2086 2470 2032 2547 
Q 1978 2624 1917 2707 
Q 1856 2790 1805 2835 
Q 2310 3232 2668 3849 
Q 3027 4467 3219 5210 
L 3693 5107 
z
M 5146 2867 
L 5146 2419 
L 2528 2419 
L 2528 2867 
L 5146 2867 
z
M 5453 2867 
Q 5453 2867 5453 2828 
Q 5453 2790 5453 2736 
Q 5453 2682 5446 2650 
Q 5414 1914 5379 1398 
Q 5344 883 5299 550 
Q 5254 218 5196 26 
Q 5139 -166 5069 -250 
Q 4979 -358 4880 -403 
Q 4781 -448 4646 -461 
Q 4525 -474 4320 -474 
Q 4115 -474 3898 -461 
Q 3891 -358 3856 -233 
Q 3821 -109 3763 -13 
Q 3981 -32 4166 -38 
Q 4352 -45 4435 -45 
Q 4512 -45 4563 -29 
Q 4614 -13 4659 45 
Q 4730 128 4787 413 
Q 4845 698 4896 1270 
Q 4947 1843 4986 2778 
L 4986 2867 
L 5453 2867 
z
M 3834 2541 
Q 3725 1421 3363 678 
Q 3002 -64 2266 -518 
Q 2234 -474 2176 -406 
Q 2118 -339 2051 -272 
Q 1984 -205 1933 -166 
Q 2630 218 2953 896 
Q 3277 1574 3360 2566 
L 3834 2541 
z
M 4826 5248 
Q 4966 4685 5152 4259 
Q 5338 3834 5600 3498 
Q 5862 3162 6221 2874 
Q 6125 2803 6029 2691 
Q 5933 2579 5888 2470 
Q 5491 2810 5209 3194 
Q 4928 3578 4733 4061 
Q 4538 4544 4390 5165 
L 4826 5248 
z
" transform="scale(0.015625)"/>
      <path id="SourceHanSansCN-Regular-7464" d="M 1952 2432 
Q 1952 1811 1795 1264 
Q 1638 717 1350 249 
Q 1062 -218 678 -614 
L 294 -416 
Q 659 -32 928 409 
Q 1197 851 1341 1356 
Q 1485 1862 1485 2432 
Q 1485 3008 1341 3510 
Q 1197 4013 928 4457 
Q 659 4902 294 5280 
L 678 5478 
Q 1062 5088 1350 4617 
Q 1638 4147 1795 3603 
Q 1952 3059 1952 2432 
z
" transform="scale(0.015625)"/>
     </defs>
     <use xlink:href="#SourceHanSansCN-Regular-695c"/>
     <use xlink:href="#SourceHanSansCN-Regular-251a" transform="translate(100 0)"/>
     <use xlink:href="#SourceHanSansCN-Regular-6c6f" transform="translate(200 0)"/>
     <use xlink:href="#SourceHanSansCN-Regular-7463" transform="translate(300 0)"/>
     <use xlink:href="#SourceHanSansCN-Regular-2970" transform="translate(400 0)"/>
     <use xlink:href="#SourceHanSansCN-Regular-224c" transform="translate(500 0)"/>
     <use xlink:href="#SourceHanSansCN-Regular-224c" transform="translate(600 0)"/>
     <use xlink:href="#SourceHanSansCN-Regular-2349" transform="translate(700 0)"/>
     <use xlink:href="#SourceHanSansCN-Regular-7464" transform="translate(800 0)"/>
    </g>
   </g>
   <g id="text_9">
    <!-- DAX 直接映射，不再复制 -->
    <g style="fill: #252525" transform="translate(149.026484 259.339844) scale(0.11 -0.11)">
     <defs>
      <path id="SourceHanSansCN-Regular-25" d="M 646 0 
L 646 4691 
L 1818 4691 
Q 2541 4691 3033 4419 
Q 3526 4147 3776 3628 
Q 4026 3110 4026 2362 
Q 4026 1619 3776 1088 
Q 3526 557 3040 278 
Q 2554 0 1843 0 
L 646 0 
z
M 1235 486 
L 1766 486 
Q 2317 486 2685 707 
Q 3053 928 3235 1350 
Q 3418 1773 3418 2362 
Q 3418 2963 3235 3372 
Q 3053 3782 2685 3996 
Q 2317 4211 1766 4211 
L 1235 4211 
L 1235 486 
z
" transform="scale(0.015625)"/>
      <path id="SourceHanSansCN-Regular-22" d="M 26 0 
L 1613 4691 
L 2272 4691 
L 3866 0 
L 3238 0 
L 2419 2624 
Q 2291 3027 2176 3414 
Q 2061 3802 1946 4211 
L 1920 4211 
Q 1811 3802 1692 3414 
Q 1574 3027 1453 2624 
L 621 0 
L 26 0 
z
M 851 1434 
L 851 1901 
L 3014 1901 
L 3014 1434 
L 851 1434 
z
" transform="scale(0.015625)"/>
      <path id="SourceHanSansCN-Regular-39" d="M 109 0 
L 1478 2426 
L 198 4691 
L 851 4691 
L 1491 3494 
Q 1581 3328 1664 3171 
Q 1747 3014 1862 2803 
L 1888 2803 
Q 1984 3014 2057 3171 
Q 2131 3328 2221 3494 
L 2848 4691 
L 3469 4691 
L 2189 2394 
L 3565 0 
L 2912 0 
L 2221 1267 
Q 2125 1440 2025 1625 
Q 1926 1811 1811 2029 
L 1786 2029 
Q 1683 1811 1590 1625 
Q 1498 1440 1408 1267 
L 736 0 
L 109 0 
z
" transform="scale(0.015625)"/>
      <path id="SourceHanSansCN-Regular-4b0b" d="M 5920 4819 
L 5920 4390 
L 480 4390 
L 480 4819 
L 5920 4819 
z
M 3456 5331 
Q 3405 5043 3350 4726 
Q 3296 4410 3238 4115 
Q 3181 3821 3123 3603 
L 2675 3667 
Q 2733 3898 2781 4202 
Q 2829 4506 2867 4819 
Q 2906 5133 2925 5382 
L 3456 5331 
z
M 5005 2925 
L 5005 2554 
L 1453 2554 
L 1453 2925 
L 5005 2925 
z
M 5005 2042 
L 5005 1670 
L 1453 1670 
L 1453 2042 
L 5005 2042 
z
M 6118 166 
L 6118 -275 
L 294 -275 
L 294 166 
L 6118 166 
z
M 5235 3878 
L 5235 -45 
L 4749 -45 
L 4749 3469 
L 1677 3469 
L 1677 -45 
L 1210 -45 
L 1210 3878 
L 5235 3878 
z
M 5024 1114 
L 5024 742 
L 1478 742 
L 1478 1114 
L 5024 1114 
z
" transform="scale(0.015625)"/>
      <path id="SourceHanSansCN-Regular-37d0" d="M 179 1978 
Q 531 2067 1030 2220 
Q 1530 2374 2042 2541 
L 2106 2093 
Q 1632 1946 1161 1789 
Q 691 1632 301 1504 
L 179 1978 
z
M 2112 4083 
L 2112 3635 
L 262 3635 
L 262 4083 
L 2112 4083 
z
M 1472 64 
Q 1472 -128 1424 -237 
Q 1376 -346 1254 -403 
Q 1146 -461 963 -480 
Q 781 -499 499 -493 
Q 493 -403 451 -272 
Q 410 -141 365 -45 
Q 557 -51 710 -51 
Q 864 -51 915 -51 
Q 1024 -51 1024 58 
L 1024 5370 
L 1472 5370 
L 1472 64 
z
M 5926 4704 
L 5926 4282 
L 2451 4282 
L 2451 4704 
L 5926 4704 
z
M 6093 3206 
L 6093 2790 
L 2227 2790 
L 2227 3206 
L 6093 3206 
z
M 3283 4218 
Q 3424 4026 3561 3798 
Q 3699 3571 3763 3405 
L 3379 3226 
Q 3315 3398 3187 3635 
Q 3059 3872 2918 4064 
L 3283 4218 
z
M 5376 4077 
Q 5229 3814 5065 3532 
Q 4902 3251 4749 3059 
L 4365 3181 
Q 4461 3322 4566 3501 
Q 4672 3680 4765 3872 
Q 4858 4064 4922 4211 
L 5376 4077 
z
M 6163 2086 
L 6163 1670 
L 2144 1670 
L 2144 2086 
L 6163 2086 
z
M 5395 1722 
Q 5267 1222 5024 848 
Q 4781 474 4403 211 
Q 4026 -51 3494 -220 
Q 2963 -390 2253 -499 
Q 2221 -397 2166 -281 
Q 2112 -166 2048 -90 
Q 2931 6 3513 227 
Q 4096 448 4438 835 
Q 4781 1222 4934 1805 
L 5395 1722 
z
M 2560 870 
Q 2752 1114 2963 1437 
Q 3174 1760 3366 2109 
Q 3558 2458 3686 2765 
L 4134 2675 
Q 3994 2355 3802 2012 
Q 3610 1670 3408 1360 
Q 3206 1050 3034 819 
L 2560 870 
z
M 2848 1190 
Q 3251 1082 3686 925 
Q 4122 768 4550 585 
Q 4979 403 5350 214 
Q 5722 26 5984 -160 
L 5670 -525 
Q 5421 -346 5059 -154 
Q 4698 38 4275 227 
Q 3853 416 3411 582 
Q 2970 749 2560 870 
L 2848 1190 
z
M 4077 5325 
Q 4205 5146 4323 4925 
Q 4442 4704 4506 4538 
L 4038 4442 
Q 3981 4608 3865 4838 
Q 3750 5069 3635 5254 
L 4077 5325 
z
" transform="scale(0.015625)"/>
      <path id="SourceHanSansCN-Regular-7467" d="M 1005 -685 
L 864 -346 
Q 1254 -186 1462 64 
Q 1670 314 1670 678 
L 1555 1216 
L 1901 730 
Q 1830 646 1740 617 
Q 1651 589 1562 589 
Q 1363 589 1222 704 
Q 1082 819 1082 1043 
Q 1082 1274 1226 1389 
Q 1370 1504 1568 1504 
Q 1837 1504 1974 1302 
Q 2112 1101 2112 768 
Q 2112 250 1811 -128 
Q 1510 -506 1005 -685 
z
" transform="scale(0.015625)"/>
      <path id="SourceHanSansCN-Regular-2259" d="M 5958 4928 
L 5958 4435 
L 442 4435 
L 442 4928 
L 5958 4928 
z
M 3936 3366 
Q 4218 3181 4531 2966 
Q 4845 2752 5145 2521 
Q 5446 2291 5705 2073 
Q 5965 1856 6144 1670 
L 5754 1299 
Q 5581 1485 5328 1712 
Q 5075 1939 4780 2176 
Q 4486 2413 4176 2640 
Q 3866 2867 3578 3059 
L 3936 3366 
z
M 3981 4570 
Q 3616 3910 3104 3283 
Q 2592 2656 1965 2125 
Q 1338 1594 608 1210 
Q 576 1274 515 1350 
Q 454 1427 393 1504 
Q 333 1581 282 1632 
Q 806 1894 1283 2243 
Q 1760 2592 2169 3005 
Q 2579 3418 2908 3862 
Q 3238 4307 3462 4755 
L 3981 4570 
z
M 2938 -499 
L 2938 3482 
L 3456 3994 
L 3456 3987 
L 3456 -499 
L 2938 -499 
z
" transform="scale(0.015625)"/>
      <path id="SourceHanSansCN-Regular-25d8" d="M 6157 1485 
L 6157 1037 
L 256 1037 
L 256 1485 
L 6157 1485 
z
M 5920 4986 
L 5920 4538 
L 493 4538 
L 493 4986 
L 5920 4986 
z
M 5088 2701 
L 5088 2278 
L 1331 2278 
L 1331 2701 
L 5088 2701 
z
M 5382 77 
Q 5382 -141 5321 -259 
Q 5261 -378 5101 -435 
Q 4947 -493 4672 -505 
Q 4397 -518 3981 -518 
Q 3962 -422 3910 -288 
Q 3859 -154 3802 -58 
Q 4019 -64 4214 -67 
Q 4410 -70 4554 -67 
Q 4698 -64 4749 -64 
Q 4838 -58 4873 -29 
Q 4909 0 4909 83 
L 4909 3910 
L 5382 3910 
L 5382 77 
z
M 5101 3910 
L 5101 3469 
L 1485 3469 
L 1485 -525 
L 1011 -525 
L 1011 3910 
L 5101 3910 
z
M 3418 4845 
L 3418 1318 
L 2931 1318 
L 2931 4845 
L 3418 4845 
z
" transform="scale(0.015625)"/>
      <path id="SourceHanSansCN-Regular-2d44" d="M 1843 2394 
L 4819 2394 
L 4819 2829 
L 1843 2829 
L 1843 2394 
z
M 1843 3155 
L 4819 3155 
L 4819 3578 
L 1843 3578 
L 1843 3155 
z
M 5318 3930 
L 5318 2042 
L 1363 2042 
L 1363 3930 
L 5318 3930 
z
M 2144 5242 
Q 1971 4890 1724 4550 
Q 1478 4211 1193 3916 
Q 909 3622 614 3392 
Q 589 3443 531 3516 
Q 474 3590 416 3664 
Q 358 3738 307 3776 
Q 717 4064 1101 4483 
Q 1485 4902 1709 5376 
L 2144 5242 
z
M 5779 4755 
L 5779 4352 
L 1389 4352 
L 1594 4755 
L 5779 4755 
z
M 2592 2029 
Q 2394 1728 2122 1443 
Q 1850 1158 1546 921 
Q 1242 685 941 499 
Q 902 538 841 598 
Q 781 659 717 716 
Q 653 774 595 806 
Q 1050 1050 1478 1411 
Q 1907 1773 2176 2176 
L 2592 2029 
z
M 4896 1632 
L 4896 1261 
L 1600 1261 
L 1907 1632 
L 4896 1632 
z
M 4858 1632 
L 4934 1658 
L 5235 1459 
Q 4896 986 4371 646 
Q 3846 307 3193 73 
Q 2541 -160 1824 -301 
Q 1107 -442 397 -512 
Q 378 -422 323 -291 
Q 269 -160 211 -83 
Q 896 -32 1584 89 
Q 2272 211 2889 409 
Q 3507 608 3990 896 
Q 4474 1184 4755 1568 
L 4755 1632 
L 4858 1632 
z
M 1914 1402 
Q 2202 1069 2637 816 
Q 3072 563 3625 390 
Q 4179 218 4822 109 
Q 5466 0 6163 -38 
Q 6086 -122 6012 -243 
Q 5939 -365 5894 -461 
Q 5197 -403 4553 -275 
Q 3910 -147 3347 61 
Q 2784 269 2329 563 
Q 1875 858 1562 1254 
L 1914 1402 
z
" transform="scale(0.015625)"/>
      <path id="SourceHanSansCN-Regular-267e" d="M 4781 4787 
L 4781 1242 
L 4326 1242 
L 4326 4787 
L 4781 4787 
z
M 5939 147 
Q 5939 -83 5875 -204 
Q 5811 -326 5664 -397 
Q 5517 -454 5257 -470 
Q 4998 -486 4640 -486 
Q 4621 -384 4576 -240 
Q 4531 -96 4480 13 
Q 4768 6 5008 6 
Q 5248 6 5338 13 
Q 5408 13 5437 41 
Q 5466 70 5466 147 
L 5466 5312 
L 5939 5312 
L 5939 147 
z
M 2310 5350 
L 2310 -506 
L 1850 -506 
L 1850 5350 
L 2310 5350 
z
M 3642 493 
Q 3642 326 3603 227 
Q 3565 128 3443 77 
Q 3334 19 3148 6 
Q 2963 -6 2694 -6 
Q 2682 96 2643 211 
Q 2605 326 2560 416 
Q 2765 410 2912 410 
Q 3059 410 3110 410 
Q 3200 410 3200 499 
L 3200 2246 
L 3642 2246 
L 3642 493 
z
M 3379 2246 
L 3379 1811 
L 1018 1811 
L 1018 13 
L 582 13 
L 582 2246 
L 3379 2246 
z
M 3866 3341 
L 3866 2899 
L 288 2899 
L 288 3341 
L 3866 3341 
z
M 3616 4454 
L 3616 4013 
L 813 4013 
L 902 4454 
L 3616 4454 
z
M 1357 5133 
Q 1242 4634 1066 4157 
Q 890 3680 691 3354 
Q 640 3379 563 3414 
Q 486 3450 406 3482 
Q 326 3514 262 3533 
Q 486 3853 646 4307 
Q 806 4762 909 5222 
L 1357 5133 
z
" transform="scale(0.015625)"/>
     </defs>
     <use xlink:href="#SourceHanSansCN-Regular-25"/>
     <use xlink:href="#SourceHanSansCN-Regular-22" transform="translate(67.703125 0)"/>
     <use xlink:href="#SourceHanSansCN-Regular-39" transform="translate(128.90625 0)"/>
     <use xlink:href="#SourceHanSansCN-Regular-1" transform="translate(186.203125 0)"/>
     <use xlink:href="#SourceHanSansCN-Regular-4b0b" transform="translate(208.609375 0)"/>
     <use xlink:href="#SourceHanSansCN-Regular-37d0" transform="translate(308.609375 0)"/>
     <use xlink:href="#SourceHanSansCN-Regular-3a4a" transform="translate(408.609375 0)"/>
     <use xlink:href="#SourceHanSansCN-Regular-3039" transform="translate(508.609375 0)"/>
     <use xlink:href="#SourceHanSansCN-Regular-7467" transform="translate(608.609375 0)"/>
     <use xlink:href="#SourceHanSansCN-Regular-2259" transform="translate(708.609375 0)"/>
     <use xlink:href="#SourceHanSansCN-Regular-25d8" transform="translate(808.609375 0)"/>
     <use xlink:href="#SourceHanSansCN-Regular-2d44" transform="translate(908.609375 0)"/>
     <use xlink:href="#SourceHanSansCN-Regular-267e" transform="translate(1008.609375 0)"/>
    </g>
   </g>
  </g>
 </g>
 <defs>
  <clipPath id="p6a69514ee4">
   <rect x="14.7" y="9.828" width="390.6" height="261.144"/>
  </clipPath>
 </defs>
</svg>
